<mxfile host="app.diagrams.net" modified="2023-11-24T08:00:34.090Z" agent="Mozilla/5.0 (Windows NT 10.0; Win64; x64) AppleWebKit/537.36 (KHTML, like Gecko) Chrome/119.0.0.0 Safari/537.36" etag="4gbYQ2DvZ7190seAghOU" version="22.1.3" type="github">
  <diagram name="第 1 页" id="Fykw5O2NkITJGp-mvflq">
    <mxGraphModel dx="1434" dy="738" grid="1" gridSize="10" guides="1" tooltips="1" connect="1" arrows="1" fold="1" page="1" pageScale="1" pageWidth="827" pageHeight="1169" math="0" shadow="0">
      <root>
        <mxCell id="0" />
        <mxCell id="1" parent="0" />
        <mxCell id="4DCGF517CeuQqB2pWlTT-3" value="IFloatSettingView" style="swimlane;fontStyle=0;childLayout=stackLayout;horizontal=1;startSize=30;horizontalStack=0;resizeParent=1;resizeParentMax=0;resizeLast=0;collapsible=1;marginBottom=0;whiteSpace=wrap;html=1;" vertex="1" parent="1">
          <mxGeometry x="580" y="200" width="130" height="80" as="geometry" />
        </mxCell>
        <mxCell id="4DCGF517CeuQqB2pWlTT-4" value="inner view" style="text;strokeColor=none;fillColor=none;align=left;verticalAlign=middle;spacingLeft=4;spacingRight=4;overflow=hidden;points=[[0,0.5],[1,0.5]];portConstraint=eastwest;rotatable=0;whiteSpace=wrap;html=1;" vertex="1" parent="4DCGF517CeuQqB2pWlTT-3">
          <mxGeometry y="30" width="130" height="30" as="geometry" />
        </mxCell>
        <mxCell id="4DCGF517CeuQqB2pWlTT-5" value="view init" style="text;strokeColor=none;fillColor=none;align=left;verticalAlign=middle;spacingLeft=4;spacingRight=4;overflow=hidden;points=[[0,0.5],[1,0.5]];portConstraint=eastwest;rotatable=0;whiteSpace=wrap;html=1;" vertex="1" parent="4DCGF517CeuQqB2pWlTT-3">
          <mxGeometry y="60" width="130" height="20" as="geometry" />
        </mxCell>
        <mxCell id="4DCGF517CeuQqB2pWlTT-7" value="IFloatManager" style="swimlane;fontStyle=0;childLayout=stackLayout;horizontal=1;startSize=30;horizontalStack=0;resizeParent=1;resizeParentMax=0;resizeLast=0;collapsible=1;marginBottom=0;whiteSpace=wrap;html=1;" vertex="1" parent="1">
          <mxGeometry x="280" y="210" width="140" height="60" as="geometry" />
        </mxCell>
        <mxCell id="4DCGF517CeuQqB2pWlTT-8" value="updateFloatView" style="text;strokeColor=none;fillColor=none;align=left;verticalAlign=middle;spacingLeft=4;spacingRight=4;overflow=hidden;points=[[0,0.5],[1,0.5]];portConstraint=eastwest;rotatable=0;whiteSpace=wrap;html=1;" vertex="1" parent="4DCGF517CeuQqB2pWlTT-7">
          <mxGeometry y="30" width="140" height="30" as="geometry" />
        </mxCell>
        <mxCell id="4DCGF517CeuQqB2pWlTT-10" style="edgeStyle=orthogonalEdgeStyle;rounded=0;orthogonalLoop=1;jettySize=auto;html=1;" edge="1" parent="1" source="4DCGF517CeuQqB2pWlTT-8" target="4DCGF517CeuQqB2pWlTT-3">
          <mxGeometry relative="1" as="geometry">
            <Array as="points">
              <mxPoint x="460" y="245" />
              <mxPoint x="460" y="245" />
            </Array>
          </mxGeometry>
        </mxCell>
        <mxCell id="4DCGF517CeuQqB2pWlTT-13" style="edgeStyle=orthogonalEdgeStyle;rounded=0;orthogonalLoop=1;jettySize=auto;html=1;" edge="1" parent="1" source="4DCGF517CeuQqB2pWlTT-11" target="4DCGF517CeuQqB2pWlTT-7">
          <mxGeometry relative="1" as="geometry" />
        </mxCell>
        <mxCell id="4DCGF517CeuQqB2pWlTT-11" value="FloatWindowManager" style="rounded=1;whiteSpace=wrap;html=1;" vertex="1" parent="1">
          <mxGeometry x="200" y="340" width="130" height="50" as="geometry" />
        </mxCell>
        <mxCell id="4DCGF517CeuQqB2pWlTT-14" style="edgeStyle=orthogonalEdgeStyle;rounded=0;orthogonalLoop=1;jettySize=auto;html=1;" edge="1" parent="1" source="4DCGF517CeuQqB2pWlTT-12" target="4DCGF517CeuQqB2pWlTT-7">
          <mxGeometry relative="1" as="geometry" />
        </mxCell>
        <mxCell id="4DCGF517CeuQqB2pWlTT-12" value="FloatViewManager" style="rounded=1;whiteSpace=wrap;html=1;" vertex="1" parent="1">
          <mxGeometry x="340" y="340" width="130" height="50" as="geometry" />
        </mxCell>
        <mxCell id="4DCGF517CeuQqB2pWlTT-15" value="具体的page view,例如ev, iso" style="rounded=1;whiteSpace=wrap;html=1;" vertex="1" parent="1">
          <mxGeometry x="720" y="500" width="120" height="60" as="geometry" />
        </mxCell>
        <mxCell id="4DCGF517CeuQqB2pWlTT-16" value="" style="curved=1;endArrow=classic;html=1;rounded=0;" edge="1" parent="1" source="4DCGF517CeuQqB2pWlTT-12" target="4DCGF517CeuQqB2pWlTT-15">
          <mxGeometry width="50" height="50" relative="1" as="geometry">
            <mxPoint x="424.44444444444434" y="400" as="sourcePoint" />
            <mxPoint x="680" y="419.7142857142858" as="targetPoint" />
            <Array as="points">
              <mxPoint x="570" y="420" />
            </Array>
          </mxGeometry>
        </mxCell>
        <mxCell id="4DCGF517CeuQqB2pWlTT-17" value="updateFloatView(初始化、添加)" style="text;html=1;align=center;verticalAlign=middle;resizable=0;points=[];autosize=1;strokeColor=#d79b00;fillColor=#ffe6cc;" vertex="1" parent="1">
          <mxGeometry x="500" y="440" width="190" height="30" as="geometry" />
        </mxCell>
        <mxCell id="4DCGF517CeuQqB2pWlTT-22" style="edgeStyle=orthogonalEdgeStyle;rounded=0;orthogonalLoop=1;jettySize=auto;html=1;" edge="1" parent="1" source="4DCGF517CeuQqB2pWlTT-18" target="4DCGF517CeuQqB2pWlTT-3">
          <mxGeometry relative="1" as="geometry">
            <Array as="points">
              <mxPoint x="645" y="300" />
              <mxPoint x="645" y="300" />
            </Array>
          </mxGeometry>
        </mxCell>
        <mxCell id="4DCGF517CeuQqB2pWlTT-18" value="IFloatSettingGroup" style="swimlane;fontStyle=0;childLayout=stackLayout;horizontal=1;startSize=30;horizontalStack=0;resizeParent=1;resizeParentMax=0;resizeLast=0;collapsible=1;marginBottom=0;whiteSpace=wrap;html=1;" vertex="1" parent="1">
          <mxGeometry x="580" y="310" width="140" height="70" as="geometry" />
        </mxCell>
        <mxCell id="4DCGF517CeuQqB2pWlTT-20" value="fm：FloatViewManager" style="text;strokeColor=none;fillColor=none;align=left;verticalAlign=middle;spacingLeft=4;spacingRight=4;overflow=hidden;points=[[0,0.5],[1,0.5]];portConstraint=eastwest;rotatable=0;whiteSpace=wrap;html=1;" vertex="1" parent="4DCGF517CeuQqB2pWlTT-18">
          <mxGeometry y="30" width="140" height="40" as="geometry" />
        </mxCell>
        <mxCell id="4DCGF517CeuQqB2pWlTT-23" value="FloatRegulateView" style="rounded=0;whiteSpace=wrap;html=1;fillColor=#d5e8d4;strokeColor=#82b366;" vertex="1" parent="1">
          <mxGeometry x="720" y="600" width="130" height="70" as="geometry" />
        </mxCell>
        <mxCell id="4DCGF517CeuQqB2pWlTT-35" style="rounded=0;orthogonalLoop=1;jettySize=auto;html=1;" edge="1" parent="1" source="4DCGF517CeuQqB2pWlTT-25" target="4DCGF517CeuQqB2pWlTT-32">
          <mxGeometry relative="1" as="geometry" />
        </mxCell>
        <mxCell id="4DCGF517CeuQqB2pWlTT-36" style="rounded=0;orthogonalLoop=1;jettySize=auto;html=1;" edge="1" parent="1" source="4DCGF517CeuQqB2pWlTT-25" target="4DCGF517CeuQqB2pWlTT-33">
          <mxGeometry relative="1" as="geometry" />
        </mxCell>
        <mxCell id="4DCGF517CeuQqB2pWlTT-37" style="rounded=0;orthogonalLoop=1;jettySize=auto;html=1;" edge="1" parent="1" source="4DCGF517CeuQqB2pWlTT-25" target="4DCGF517CeuQqB2pWlTT-34">
          <mxGeometry relative="1" as="geometry" />
        </mxCell>
        <mxCell id="4DCGF517CeuQqB2pWlTT-25" value="专业" style="whiteSpace=wrap;html=1;fillColor=#fff2cc;strokeColor=#d6b656;" vertex="1" parent="1">
          <mxGeometry x="920" y="525" width="60" height="45" as="geometry" />
        </mxCell>
        <mxCell id="4DCGF517CeuQqB2pWlTT-26" value="调节" style="whiteSpace=wrap;html=1;fillColor=#fff2cc;strokeColor=#d6b656;" vertex="1" parent="1">
          <mxGeometry x="920" y="600" width="60" height="50" as="geometry" />
        </mxCell>
        <mxCell id="4DCGF517CeuQqB2pWlTT-27" value="画面" style="whiteSpace=wrap;html=1;fillColor=#fff2cc;strokeColor=#d6b656;" vertex="1" parent="1">
          <mxGeometry x="920" y="680" width="60" height="50" as="geometry" />
        </mxCell>
        <mxCell id="4DCGF517CeuQqB2pWlTT-28" value="" style="endArrow=classic;html=1;rounded=0;exitX=1;exitY=0.5;exitDx=0;exitDy=0;" edge="1" parent="1" source="4DCGF517CeuQqB2pWlTT-23" target="4DCGF517CeuQqB2pWlTT-25">
          <mxGeometry width="50" height="50" relative="1" as="geometry">
            <mxPoint x="390" y="660" as="sourcePoint" />
            <mxPoint x="440" y="610" as="targetPoint" />
          </mxGeometry>
        </mxCell>
        <mxCell id="4DCGF517CeuQqB2pWlTT-29" value="" style="endArrow=classic;html=1;rounded=0;" edge="1" parent="1" source="4DCGF517CeuQqB2pWlTT-23" target="4DCGF517CeuQqB2pWlTT-26">
          <mxGeometry width="50" height="50" relative="1" as="geometry">
            <mxPoint x="870" y="690" as="sourcePoint" />
            <mxPoint x="920" y="640" as="targetPoint" />
          </mxGeometry>
        </mxCell>
        <mxCell id="4DCGF517CeuQqB2pWlTT-30" value="" style="endArrow=classic;html=1;rounded=0;exitX=1;exitY=0.5;exitDx=0;exitDy=0;" edge="1" parent="1" source="4DCGF517CeuQqB2pWlTT-23" target="4DCGF517CeuQqB2pWlTT-27">
          <mxGeometry width="50" height="50" relative="1" as="geometry">
            <mxPoint x="840" y="760" as="sourcePoint" />
            <mxPoint x="890" y="710" as="targetPoint" />
          </mxGeometry>
        </mxCell>
        <mxCell id="4DCGF517CeuQqB2pWlTT-31" value="特性，能切换自己的内容" style="text;html=1;align=center;verticalAlign=middle;resizable=0;points=[];autosize=1;strokeColor=#A50040;fillColor=#d80073;fontColor=#ffffff;" vertex="1" parent="1">
          <mxGeometry x="720" y="338" width="160" height="30" as="geometry" />
        </mxCell>
        <mxCell id="4DCGF517CeuQqB2pWlTT-32" value="EV" style="whiteSpace=wrap;html=1;fillColor=#1ba1e2;strokeColor=#006EAF;fontColor=#ffffff;" vertex="1" parent="1">
          <mxGeometry x="1020" y="432.5" width="60" height="45" as="geometry" />
        </mxCell>
        <mxCell id="4DCGF517CeuQqB2pWlTT-33" value="iso" style="whiteSpace=wrap;html=1;fillColor=#1ba1e2;strokeColor=#006EAF;fontColor=#ffffff;" vertex="1" parent="1">
          <mxGeometry x="1020" y="507.5" width="60" height="45" as="geometry" />
        </mxCell>
        <mxCell id="4DCGF517CeuQqB2pWlTT-34" value="wb" style="whiteSpace=wrap;html=1;fillColor=#1ba1e2;strokeColor=#006EAF;fontColor=#ffffff;" vertex="1" parent="1">
          <mxGeometry x="1020" y="570" width="60" height="45" as="geometry" />
        </mxCell>
      </root>
    </mxGraphModel>
  </diagram>
</mxfile>
